<mxfile host="65bd71144e">
    <diagram id="h46fE4-wsshGaO_YwJ7Q" name="Page-1">
        <mxGraphModel dx="2033" dy="1436" grid="1" gridSize="10" guides="1" tooltips="1" connect="1" arrows="1" fold="1" page="1" pageScale="1" pageWidth="850" pageHeight="1100" math="0" shadow="0">
            <root>
                <mxCell id="0"/>
                <mxCell id="1" parent="0"/>
                <mxCell id="2" value="" style="strokeWidth=1;shadow=0;dashed=0;align=center;html=1;shape=mxgraph.mockup.containers.browserWindow;rSize=0;strokeColor=#666666;strokeColor2=#008cff;strokeColor3=#c4c4c4;mainText=,;recursiveResize=0;" parent="1" vertex="1">
                    <mxGeometry x="260" y="120" width="1120" height="1010" as="geometry"/>
                </mxCell>
                <mxCell id="3" value="Page 1" style="strokeWidth=1;shadow=0;dashed=0;align=center;html=1;shape=mxgraph.mockup.containers.anchor;fontSize=17;fontColor=#666666;align=left;" parent="2" vertex="1">
                    <mxGeometry x="60" y="12" width="110" height="26" as="geometry"/>
                </mxCell>
                <mxCell id="4" value="https://www.draw.io" style="strokeWidth=1;shadow=0;dashed=0;align=center;html=1;shape=mxgraph.mockup.containers.anchor;rSize=0;fontSize=17;fontColor=#666666;align=left;" parent="2" vertex="1">
                    <mxGeometry x="130" y="60" width="250" height="26" as="geometry"/>
                </mxCell>
                <mxCell id="22" value="&lt;h1&gt;&lt;span style=&quot;color: rgb(0 , 0 , 0)&quot;&gt;Sparta&lt;/span&gt;&lt;/h1&gt;&lt;h1&gt;&lt;p style=&quot;margin: 0.5em 0px ; color: rgb(32 , 33 , 34) ; font-family: sans-serif ; font-size: 14px ; font-weight: 400 ; background-color: rgb(255 , 255 , 255)&quot;&gt;&lt;b&gt;Sparta&lt;/b&gt;&amp;nbsp;(&lt;a href=&quot;https://en.wikipedia.org/wiki/Doric_Greek&quot; title=&quot;Doric Greek&quot; style=&quot;color: rgb(6 , 69 , 173) ; background: none&quot;&gt;Doric Greek&lt;/a&gt;: Σπάρτα,&amp;nbsp;&lt;i&gt;Spártā&lt;/i&gt;;&amp;nbsp;&lt;a href=&quot;https://en.wikipedia.org/wiki/Attic_Greek&quot; title=&quot;Attic Greek&quot; style=&quot;color: rgb(6 , 69 , 173) ; background: none&quot;&gt;Attic Greek&lt;/a&gt;:&amp;nbsp;&lt;a href=&quot;https://en.wiktionary.org/wiki/%CE%A3%CF%80%CE%AC%CF%81%CF%84%CE%B7&quot; class=&quot;extiw&quot; title=&quot;wikt:Σπάρτη&quot; style=&quot;color: rgb(51 , 102 , 187) ; background: none&quot;&gt;Σπάρτη&lt;/a&gt;,&amp;nbsp;&lt;i&gt;Spártē&lt;/i&gt;) was a prominent&amp;nbsp;&lt;a href=&quot;https://en.wikipedia.org/wiki/City-state&quot; title=&quot;City-state&quot; style=&quot;color: rgb(6 , 69 , 173) ; background: none&quot;&gt;city-state&lt;/a&gt;&amp;nbsp;in&amp;nbsp;&lt;a href=&quot;https://en.wikipedia.org/wiki/Laconia&quot; title=&quot;Laconia&quot; style=&quot;color: rgb(6 , 69 , 173) ; background: none&quot;&gt;Laconia&lt;/a&gt;, in&amp;nbsp;&lt;a href=&quot;https://en.wikipedia.org/wiki/Ancient_Greece&quot; title=&quot;Ancient Greece&quot; style=&quot;color: rgb(6 , 69 , 173) ; background: none&quot;&gt;ancient Greece&lt;/a&gt;. In antiquity, the city-state was known as&amp;nbsp;&lt;b&gt;Lacedaemon&lt;/b&gt;&amp;nbsp;(&lt;span title=&quot;Ancient Greek (to 1453)-language text&quot;&gt;&lt;span lang=&quot;grc&quot;&gt;&lt;a href=&quot;https://en.wiktionary.org/wiki/%CE%9B%CE%B1%CE%BA%CE%B5%CE%B4%CE%B1%CE%AF%CE%BC%CF%89%CE%BD&quot; class=&quot;extiw&quot; title=&quot;wikt:Λακεδαίμων&quot; style=&quot;color: rgb(51 , 102 , 187) ; background: none&quot;&gt;Λακεδαίμων&lt;/a&gt;&lt;/span&gt;&lt;/span&gt;,&amp;nbsp;&lt;span title=&quot;Ancient Greek (to 1453)-language text&quot;&gt;&lt;i lang=&quot;grc-Latn&quot;&gt;Lakedaímōn&lt;/i&gt;&lt;/span&gt;), while the name Sparta referred to its main settlement on the banks of the&amp;nbsp;&lt;a href=&quot;https://en.wikipedia.org/wiki/Eurotas_(river)&quot; title=&quot;Eurotas (river)&quot; style=&quot;color: rgb(6 , 69 , 173) ; background: none&quot;&gt;Eurotas River&lt;/a&gt;&amp;nbsp;in&amp;nbsp;&lt;a href=&quot;https://en.wikipedia.org/wiki/Laconia&quot; title=&quot;Laconia&quot; style=&quot;color: rgb(6 , 69 , 173) ; background: none&quot;&gt;Laconia&lt;/a&gt;, in south-eastern&amp;nbsp;&lt;a href=&quot;https://en.wikipedia.org/wiki/Peloponnese&quot; title=&quot;Peloponnese&quot; style=&quot;color: rgb(6 , 69 , 173) ; background: none&quot;&gt;Peloponnese&lt;/a&gt;.&lt;sup id=&quot;cite_ref-FOOTNOTECartledge200291_1-0&quot; class=&quot;reference&quot; style=&quot;line-height: 1 ; font-size: 11.2px&quot;&gt;&lt;a href=&quot;https://en.wikipedia.org/wiki/Sparta#cite_note-FOOTNOTECartledge200291-1&quot; style=&quot;color: rgb(6 , 69 , 173) ; background: none&quot;&gt;[1]&lt;/a&gt;&lt;/sup&gt;&amp;nbsp;Around 650 BC, it rose to become the dominant&amp;nbsp;&lt;a href=&quot;https://en.wikipedia.org/wiki/Military&quot; title=&quot;Military&quot; style=&quot;color: rgb(6 , 69 , 173) ; background: none&quot;&gt;military land-power&lt;/a&gt;&amp;nbsp;in ancient Greece.&lt;/p&gt;&lt;p style=&quot;margin: 0.5em 0px ; color: rgb(32 , 33 , 34) ; font-family: sans-serif ; font-size: 14px ; font-weight: 400 ; background-color: rgb(255 , 255 , 255)&quot;&gt;Given its military pre-eminence, Sparta was recognized as the leading force of the unified Greek military during the&amp;nbsp;&lt;a href=&quot;https://en.wikipedia.org/wiki/Greco-Persian_Wars&quot; title=&quot;Greco-Persian Wars&quot; style=&quot;color: rgb(6 , 69 , 173) ; background: none&quot;&gt;Greco-Persian Wars&lt;/a&gt;, in rivalry with the rising naval power of&amp;nbsp;&lt;a href=&quot;https://en.wikipedia.org/wiki/Classical_Athens&quot; title=&quot;Classical Athens&quot; style=&quot;color: rgb(6 , 69 , 173) ; background: none&quot;&gt;Athens&lt;/a&gt;.&lt;sup id=&quot;cite_ref-FOOTNOTECartledge2002174_2-0&quot; class=&quot;reference&quot; style=&quot;line-height: 1 ; font-size: 11.2px&quot;&gt;&lt;a href=&quot;https://en.wikipedia.org/wiki/Sparta#cite_note-FOOTNOTECartledge2002174-2&quot; style=&quot;color: rgb(6 , 69 , 173) ; background: none&quot;&gt;[2]&lt;/a&gt;&lt;/sup&gt;&amp;nbsp;Sparta was the principal enemy of Athens during the&amp;nbsp;&lt;a href=&quot;https://en.wikipedia.org/wiki/Peloponnesian_War&quot; title=&quot;Peloponnesian War&quot; style=&quot;color: rgb(6 , 69 , 173) ; background: none&quot;&gt;Peloponnesian War&lt;/a&gt;&amp;nbsp;(431–404 BC),&lt;sup id=&quot;cite_ref-FOOTNOTECartledge2002192_3-0&quot; class=&quot;reference&quot; style=&quot;line-height: 1 ; font-size: 11.2px&quot;&gt;&lt;a href=&quot;https://en.wikipedia.org/wiki/Sparta#cite_note-FOOTNOTECartledge2002192-3&quot; style=&quot;color: rgb(6 , 69 , 173) ; background: none&quot;&gt;[3]&lt;/a&gt;&lt;/sup&gt;&amp;nbsp;from which it emerged victorious after the&amp;nbsp;&lt;a href=&quot;https://en.wikipedia.org/wiki/Battle_of_Aegospotami&quot; title=&quot;Battle of Aegospotami&quot; style=&quot;color: rgb(6 , 69 , 173) ; background: none&quot;&gt;Battle of Aegospotami&lt;/a&gt;. The decisive&amp;nbsp;&lt;a href=&quot;https://en.wikipedia.org/wiki/Battle_of_Leuctra&quot; title=&quot;Battle of Leuctra&quot; style=&quot;color: rgb(6 , 69 , 173) ; background: none&quot;&gt;Battle of Leuctra&lt;/a&gt;&amp;nbsp;in 371 BC ended the&amp;nbsp;&lt;a href=&quot;https://en.wikipedia.org/wiki/Spartan_hegemony&quot; title=&quot;Spartan hegemony&quot; style=&quot;color: rgb(6 , 69 , 173) ; background: none&quot;&gt;Spartan hegemony&lt;/a&gt;, although the city-state maintained its&amp;nbsp;&lt;a href=&quot;https://en.wikipedia.org/wiki/Independence&quot; title=&quot;Independence&quot; style=&quot;color: rgb(6 , 69 , 173) ; background: none&quot;&gt;political independence&lt;/a&gt;&amp;nbsp;until its forced integration into the&amp;nbsp;&lt;a href=&quot;https://en.wikipedia.org/wiki/Achaean_League&quot; title=&quot;Achaean League&quot; style=&quot;color: rgb(6 , 69 , 173) ; background: none&quot;&gt;Achaean League&lt;/a&gt;&amp;nbsp;in 192 BC. The city nevertheless recovered a large autonomy after&amp;nbsp;&lt;a href=&quot;https://en.wikipedia.org/wiki/Greece_in_the_Roman_era&quot; title=&quot;Greece in the Roman era&quot; style=&quot;color: rgb(6 , 69 , 173) ; background: none&quot;&gt;Roman conquest of Greece&lt;/a&gt;&amp;nbsp;in&amp;nbsp;&lt;a href=&quot;https://en.wikipedia.org/wiki/Battle_of_Corinth_(146_BC)&quot; title=&quot;Battle of Corinth (146 BC)&quot; style=&quot;color: rgb(6 , 69 , 173) ; background: none&quot;&gt;146 BC&lt;/a&gt;&amp;nbsp;and prospered during the&amp;nbsp;&lt;a href=&quot;https://en.wikipedia.org/wiki/Roman_Empire&quot; title=&quot;Roman Empire&quot; style=&quot;color: rgb(6 , 69 , 173) ; background: none&quot;&gt;Roman Empire&lt;/a&gt;, as its antiquarian customs attracted many Roman tourists. However, Sparta was sacked in 396 AD by the&amp;nbsp;&lt;a href=&quot;https://en.wikipedia.org/wiki/Visigoths&quot; title=&quot;Visigoths&quot; style=&quot;color: rgb(6 , 69 , 173) ; background: none&quot;&gt;Visigothic&lt;/a&gt;&amp;nbsp;king&amp;nbsp;&lt;a href=&quot;https://en.wikipedia.org/wiki/Alaric_I&quot; title=&quot;Alaric I&quot; style=&quot;color: rgb(6 , 69 , 173) ; background: none&quot;&gt;Alaric&lt;/a&gt;, and underwent a long period of decline, especially in the&amp;nbsp;&lt;a href=&quot;https://en.wikipedia.org/wiki/Middle_Ages&quot; title=&quot;Middle Ages&quot; style=&quot;color: rgb(6 , 69 , 173) ; background: none&quot;&gt;Middle Ages&lt;/a&gt;, when many of its citizens moved to&amp;nbsp;&lt;a href=&quot;https://en.wikipedia.org/wiki/Mystras&quot; title=&quot;Mystras&quot; style=&quot;color: rgb(6 , 69 , 173) ; background: none&quot;&gt;Mystras&lt;/a&gt;.&amp;nbsp;&lt;a href=&quot;https://en.wikipedia.org/wiki/Sparta,_Laconia&quot; title=&quot;Sparta, Laconia&quot; style=&quot;color: rgb(6 , 69 , 173) ; background: none&quot;&gt;Modern Sparta&lt;/a&gt;&amp;nbsp;is the capital of the southern Greek region of Laconia and a center for processing citrus and olives.&lt;/p&gt;&lt;p style=&quot;margin: 0.5em 0px ; color: rgb(32 , 33 , 34) ; font-family: sans-serif ; font-size: 14px ; font-weight: 400 ; background-color: rgb(255 , 255 , 255)&quot;&gt;Sparta was unique in&amp;nbsp;&lt;a href=&quot;https://en.wikipedia.org/wiki/Ancient_Greece&quot; title=&quot;Ancient Greece&quot; style=&quot;color: rgb(6 , 69 , 173) ; background: none&quot;&gt;ancient Greece&lt;/a&gt;&amp;nbsp;for its&amp;nbsp;&lt;a href=&quot;https://en.wikipedia.org/wiki/Social_system&quot; title=&quot;Social system&quot; style=&quot;color: rgb(6 , 69 , 173) ; background: none&quot;&gt;social system&lt;/a&gt;&amp;nbsp;and&amp;nbsp;&lt;a href=&quot;https://en.wikipedia.org/wiki/Spartan_Constitution&quot; title=&quot;Spartan Constitution&quot; style=&quot;color: rgb(6 , 69 , 173) ; background: none&quot;&gt;constitution&lt;/a&gt;, which were supposedly introduced by the semi-mythical legislator&amp;nbsp;&lt;a href=&quot;https://en.wikipedia.org/wiki/Lycurgus_of_Sparta&quot; class=&quot;mw-redirect&quot; title=&quot;Lycurgus of Sparta&quot; style=&quot;color: rgb(6 , 69 , 173) ; background: none&quot;&gt;Lycurgus&lt;/a&gt;. His laws configured the Spartan&amp;nbsp;&lt;a href=&quot;https://en.wikipedia.org/wiki/Society&quot; title=&quot;Society&quot; style=&quot;color: rgb(6 , 69 , 173) ; background: none&quot;&gt;society&lt;/a&gt;&amp;nbsp;to maximize military proficiency at all costs, focusing all&amp;nbsp;&lt;a href=&quot;https://en.wikipedia.org/wiki/Institution&quot; title=&quot;Institution&quot; style=&quot;color: rgb(6 , 69 , 173) ; background: none&quot;&gt;social institutions&lt;/a&gt;&amp;nbsp;on&amp;nbsp;&lt;a href=&quot;https://en.wikipedia.org/wiki/Military_education_and_training&quot; title=&quot;Military education and training&quot; style=&quot;color: rgb(6 , 69 , 173) ; background: none&quot;&gt;military training&lt;/a&gt;&amp;nbsp;and physical development. The inhabitants of Sparta were stratified as&amp;nbsp;&lt;a href=&quot;https://en.wikipedia.org/wiki/Spartiate&quot; title=&quot;Spartiate&quot; style=&quot;color: rgb(6 , 69 , 173) ; background: none&quot;&gt;Spartiates&lt;/a&gt;&amp;nbsp;(citizens with full rights),&amp;nbsp;&lt;a href=&quot;https://en.wikipedia.org/wiki/Mothax&quot; title=&quot;Mothax&quot; style=&quot;color: rgb(6 , 69 , 173) ; background: none&quot;&gt;mothakes&lt;/a&gt;&amp;nbsp;(free non-Spartiate people descended from Spartans),&amp;nbsp;&lt;a href=&quot;https://en.wikipedia.org/wiki/Perioeci&quot; title=&quot;Perioeci&quot; style=&quot;color: rgb(6 , 69 , 173) ; background: none&quot;&gt;perioikoi&lt;/a&gt;&amp;nbsp;(free non-Spartiates), and&amp;nbsp;&lt;a href=&quot;https://en.wikipedia.org/wiki/Helots&quot; title=&quot;Helots&quot; style=&quot;color: rgb(6 , 69 , 173) ; background: none&quot;&gt;helots&lt;/a&gt;&amp;nbsp;(state-owned enslaved non-Spartan locals). Spartiate men underwent the rigorous&amp;nbsp;&lt;i&gt;&lt;a href=&quot;https://en.wikipedia.org/wiki/Agoge&quot; title=&quot;Agoge&quot; style=&quot;color: rgb(6 , 69 , 173) ; background: none&quot;&gt;agoge&lt;/a&gt;&lt;/i&gt;&amp;nbsp;training regimen, and Spartan&amp;nbsp;&lt;a href=&quot;https://en.wikipedia.org/wiki/Phalanx_formation&quot; class=&quot;mw-redirect&quot; title=&quot;Phalanx formation&quot; style=&quot;color: rgb(6 , 69 , 173) ; background: none&quot;&gt;phalanx&lt;/a&gt;&amp;nbsp;brigades were widely considered to be among the best in battle.&amp;nbsp;&lt;a href=&quot;https://en.wikipedia.org/wiki/Women_in_ancient_Sparta&quot; title=&quot;Women in ancient Sparta&quot; style=&quot;color: rgb(6 , 69 , 173) ; background: none&quot;&gt;Spartan women&lt;/a&gt;&amp;nbsp;enjoyed considerably more&amp;nbsp;&lt;a href=&quot;https://en.wikipedia.org/wiki/Women%27s_rights&quot; title=&quot;Women's rights&quot; style=&quot;color: rgb(6 , 69 , 173) ; background: none&quot;&gt;rights&lt;/a&gt;&amp;nbsp;than elsewhere in&amp;nbsp;&lt;a href=&quot;https://en.wikipedia.org/wiki/Classical_antiquity&quot; title=&quot;Classical antiquity&quot; style=&quot;color: rgb(6 , 69 , 173) ; background: none&quot;&gt;classical antiquity&lt;/a&gt;.&lt;/p&gt;&lt;p style=&quot;margin: 0.5em 0px ; color: rgb(32 , 33 , 34) ; font-family: sans-serif ; font-size: 14px ; font-weight: 400 ; background-color: rgb(255 , 255 , 255)&quot;&gt;Sparta was frequently a subject of fascination in its own day, as well as in&amp;nbsp;&lt;a href=&quot;https://en.wikipedia.org/wiki/Western_culture&quot; title=&quot;Western culture&quot; style=&quot;color: rgb(6 , 69 , 173) ; background: none&quot;&gt;Western culture&lt;/a&gt;&amp;nbsp;following the revival of classical learning. The admiration of Sparta is known as&amp;nbsp;&lt;a href=&quot;https://en.wikipedia.org/wiki/Laconophilia&quot; title=&quot;Laconophilia&quot; style=&quot;color: rgb(6 , 69 , 173) ; background: none&quot;&gt;Laconophilia&lt;/a&gt;.&amp;nbsp;&lt;a href=&quot;https://en.wikipedia.org/wiki/Bertrand_Russell&quot; title=&quot;Bertrand Russell&quot; style=&quot;color: rgb(6 , 69 , 173) ; background: none&quot;&gt;Bertrand Russell&lt;/a&gt;&amp;nbsp;wrote:&lt;/p&gt;&lt;blockquote style=&quot;overflow: hidden ; margin: 1em 0px ; padding: 8px 32px ; border-left: none ; color: rgb(32 , 33 , 34) ; font-family: sans-serif ; font-size: 14px ; font-weight: 400 ; background-color: rgb(255 , 255 , 255)&quot;&gt;&lt;p style=&quot;margin: 0px&quot;&gt;Sparta had a double effect on Greek thought: through the reality, and through the myth.... The reality enabled the Spartans to defeat Athens in war; the myth influenced Plato's political theory, and that of countless subsequent writers.... [The] ideals that it favors had a great part in framing the doctrines of Rousseau, Nietzsche, and National Socialism.&lt;sup id=&quot;cite_ref-4&quot; class=&quot;reference&quot; style=&quot;line-height: 1 ; font-size: 11.2px&quot;&gt;&lt;a href=&quot;https://en.wikipedia.org/wiki/Sparta#cite_note-4&quot; style=&quot;color: rgb(6 , 69 , 173) ; background: none&quot;&gt;[4]&lt;/a&gt;&lt;/sup&gt;&lt;/p&gt;&lt;div&gt;&lt;br&gt;&lt;/div&gt;&lt;/blockquote&gt;&lt;/h1&gt;" style="text;html=1;strokeColor=none;fillColor=none;spacing=5;spacingTop=-20;whiteSpace=wrap;overflow=hidden;rounded=0;fontColor=#0000FF;" parent="2" vertex="1">
                    <mxGeometry x="72.5" y="210" width="575" height="860" as="geometry"/>
                </mxCell>
                <mxCell id="23" value="" style="shape=image;verticalLabelPosition=bottom;labelBackgroundColor=#ffffff;verticalAlign=top;aspect=fixed;imageAspect=0;image=https://upload.wikimedia.org/wikipedia/commons/thumb/6/6b/Sparta_Territory.svg/250px-Sparta_Territory.svg.png;" vertex="1" parent="2">
                    <mxGeometry x="772.62" y="220" width="294.76" height="270" as="geometry"/>
                </mxCell>
                <mxCell id="17" value="" style="strokeWidth=1;shadow=0;dashed=0;align=center;html=1;shape=mxgraph.mockup.text.rrect;rSize=0;strokeColor=#666666;" parent="2" vertex="1">
                    <mxGeometry x="570" y="150" width="420" height="35" as="geometry"/>
                </mxCell>
                <mxCell id="18" value="Gallery" style="strokeColor=inherit;fillColor=inherit;gradientColor=inherit;strokeWidth=1;shadow=0;dashed=0;align=center;html=1;shape=mxgraph.mockup.text.rrect;rSize=0;fontSize=17;fontColor=#0000ff;" parent="17" vertex="1">
                    <mxGeometry x="104.99999999999999" width="104.99999999999999" height="35" as="geometry"/>
                </mxCell>
                <mxCell id="19" value="Quiz" style="strokeColor=inherit;fillColor=inherit;gradientColor=inherit;strokeWidth=1;shadow=0;dashed=0;align=center;html=1;shape=mxgraph.mockup.text.rrect;rSize=0;fontSize=17;fontColor=#0000ff;" parent="17" vertex="1">
                    <mxGeometry x="209.99999999999997" width="104.99999999999999" height="35" as="geometry"/>
                </mxCell>
                <mxCell id="20" value="About us" style="strokeColor=inherit;fillColor=inherit;gradientColor=inherit;strokeWidth=1;shadow=0;dashed=0;align=center;html=1;shape=mxgraph.mockup.text.rrect;rSize=0;fontSize=17;fontColor=#0000ff;" parent="17" vertex="1">
                    <mxGeometry x="315" width="104.99999999999999" height="35" as="geometry"/>
                </mxCell>
                <mxCell id="21" value="Spartans" style="strokeWidth=1;shadow=0;dashed=0;align=center;shape=mxgraph.mockup.text.rrect;rSize=0;fontSize=17;fontColor=#0000FF;fillColor=none;strokeColor=#008cff;html=1;" parent="17" vertex="1">
                    <mxGeometry width="104.99999999999999" height="35" as="geometry"/>
                </mxCell>
                <mxCell id="12" value="" style="strokeWidth=1;shadow=0;dashed=0;align=center;html=1;shape=mxgraph.mockup.text.rrect;rSize=0;strokeColor=#666666;" parent="2" vertex="1">
                    <mxGeometry x="90" y="150" width="480" height="35" as="geometry"/>
                </mxCell>
                <mxCell id="13" value="History" style="strokeColor=inherit;fillColor=inherit;gradientColor=inherit;strokeWidth=1;shadow=0;dashed=0;align=center;html=1;shape=mxgraph.mockup.text.rrect;rSize=0;fontSize=17;fontColor=#0000ff;" parent="12" vertex="1">
                    <mxGeometry x="120" width="120" height="35" as="geometry"/>
                </mxCell>
                <mxCell id="14" value="Society" style="strokeColor=inherit;fillColor=inherit;gradientColor=inherit;strokeWidth=1;shadow=0;dashed=0;align=center;html=1;shape=mxgraph.mockup.text.rrect;rSize=0;fontSize=17;fontColor=#0000ff;" parent="12" vertex="1">
                    <mxGeometry x="240" width="120" height="35" as="geometry"/>
                </mxCell>
                <mxCell id="15" value="Life" style="strokeColor=inherit;fillColor=inherit;gradientColor=inherit;strokeWidth=1;shadow=0;dashed=0;align=center;html=1;shape=mxgraph.mockup.text.rrect;rSize=0;fontSize=17;fontColor=#0000ff;" parent="12" vertex="1">
                    <mxGeometry x="360" width="120" height="35" as="geometry"/>
                </mxCell>
                <mxCell id="16" value="Homepage" style="strokeWidth=1;shadow=0;dashed=0;align=center;html=1;shape=mxgraph.mockup.text.rrect;rSize=0;fontSize=17;fontColor=#ffffff;fillColor=#008cff;strokeColor=#008cff;" parent="12" vertex="1">
                    <mxGeometry width="120" height="35" as="geometry"/>
                </mxCell>
                <mxCell id="28" value="" style="rounded=0;whiteSpace=wrap;html=1;fontColor=#000000;fillColor=none;" vertex="1" parent="2">
                    <mxGeometry x="720" y="210" width="380" height="700" as="geometry"/>
                </mxCell>
                <mxCell id="27" value="" style="rounded=0;whiteSpace=wrap;html=1;fontColor=#000000;fillColor=none;" vertex="1" parent="2">
                    <mxGeometry x="70" y="210" width="580" height="700" as="geometry"/>
                </mxCell>
            </root>
        </mxGraphModel>
    </diagram>
</mxfile>